<svg width="358" height="62" viewBox="0 0 358 62" fill="none" xmlns="http://www.w3.org/2000/svg">
  <path
    d="M324.323 49.8804C314.307 49.8804 306.494 43.4701 306.494 31.1502C306.494 18.4297 314.307 12.1195 324.323 12.1195C334.339 12.0194 342.152 18.3296 342.152 31.1502C342.152 43.5703 334.339 49.9806 324.323 49.8804ZM324.323 0C305.893 0 291.069 10.4168 291.069 31.1502C291.069 51.5832 305.994 62 324.323 62C342.753 62 357.577 51.5832 357.577 31.1502C357.677 10.4168 342.753 0 324.323 0ZM267.031 0.801288V40.9661L239.486 0.801288H222.96V60.9984H236.582V20.433L264.627 60.9984H280.552V0.801288H267.031ZM196.317 61.0985H210.84V0.801288H196.317V61.0985ZM135.519 19.9322C135.519 30.5493 142.83 35.7577 154.75 36.3586L164.265 36.8594C169.774 37.1599 173.68 38.7625 173.68 42.5687C173.68 47.1761 169.573 49.3796 160.359 49.3796C152.246 49.3796 144.533 48.378 137.422 46.8756V59.7965C143.732 61.0986 153.247 61.8998 159.858 61.8998C174.682 61.8998 187.603 57.0921 187.603 41.7674C187.603 30.3489 180.591 24.8401 168.572 24.1389L157.053 23.4378C151.645 23.1373 149.241 21.4346 149.341 17.8288C149.441 14.2229 153.748 12.0194 160.859 12.0194C168.772 12.0194 175.683 12.9208 183.596 14.7237V2.10339C177.586 0.701129 170.074 0 161.961 0C147.137 0 135.519 6.0097 135.519 19.9322ZM85.3376 36.7593L95.1535 11.4184L104.969 36.7593H85.3376ZM114.384 61.0985H130.11L105.37 0.901456H84.937L60.1971 61.0985H75.9224L80.7302 48.5783H109.477L114.384 61.0985ZM0 30.4491C0 48.4782 11.7189 61.8998 34.6559 61.8998C43.2698 61.8998 47.5767 60.9984 53.4863 59.6963V46.7754C48.2779 48.1777 41.2666 48.8788 35.6575 48.8788C24.8401 48.8788 15.525 42.9693 15.525 30.6494C15.525 18.3296 25.1405 12.7205 36.3586 12.7205C41.1664 12.7205 47.3764 13.3215 53.4863 15.0242V1.90307C48.4782 0.600971 43.0695 0 35.5573 0C16.2262 0 0 11.5186 0 30.4491Z"
    fill="white"
  />
</svg>
