<svg width="324" height="62" viewBox="0 0 324 62" fill="none" xmlns="http://www.w3.org/2000/svg">
  <path
    d="M39.8285 20.466C39.8285 14.6472 36.1165 12.3398 30.699 12.3398H14.5469V29.0938H29.4951C36.2168 29.0938 39.8285 26.3851 39.8285 20.466ZM54.9773 20.2654C54.9773 32.6052 47.0518 41.1327 31.8026 41.1327H14.5469V61.1974H0V1.00323H34.411C47.5534 1.00323 54.9773 8.22653 54.9773 20.2654Z"
    fill="white"
  />
  <path
    d="M112.463 31.2006C112.463 18.3592 104.638 12.0388 94.6053 12.1392C84.5729 12.2395 76.7477 18.4595 76.7477 31.2006C76.7477 43.6408 84.5729 49.9612 94.6053 49.9612C104.638 49.9612 112.463 43.7411 112.463 31.2006ZM128.013 31.2006C128.013 51.5663 113.065 62 94.7056 62C76.2461 62 61.3982 51.5663 61.3982 31.2006C61.3982 10.4337 76.3464 0 94.7056 0C113.065 0 128.013 10.4337 128.013 31.2006Z"
    fill="white"
  />
  <path
    d="M161.622 36.4175L151.79 47.5534V61.1974H137.243V1.00323H151.79V29.3948L177.172 1.00323H195.33L171.453 26.3851L197.939 61.1974H179.981L161.622 36.4175Z"
    fill="white"
  />
  <path
    d="M220.21 13.0421V24.6796H250.006V36.2168H220.21V48.8576H253.417V61.1974H205.663V1.00323H253.417V13.0421H220.21Z"
    fill="white"
  />
  <path
    d="M278.799 27.9903H294.651C300.57 27.9903 304.583 25.7832 304.583 20.3657C304.583 14.5469 300.57 12.4401 295.152 12.4401H278.9V27.9903H278.799ZM289.133 39.6278H278.799V61.2977H264.252V1.00323H299.265C313.311 1.00323 319.731 9.02912 319.731 19.6634C319.731 29.3948 314.314 36.8188 305.084 38.7249L323.042 61.398H305.385L289.133 39.6278Z"
    fill="white"
  />
</svg>
