<svg width="376" height="62" viewBox="0 0 376 62" fill="none" xmlns="http://www.w3.org/2000/svg">
  <path
    d="M323.021 19.9322C323.021 30.5493 330.333 35.7577 342.252 36.3586L351.767 36.8594C357.276 37.1599 361.183 38.7625 361.183 42.5687C361.183 47.1761 357.076 49.3796 347.861 49.3796C339.748 49.3796 332.036 48.378 324.924 46.8756V59.7965C331.234 61.0986 340.75 61.8998 347.36 61.8998C362.184 61.8998 375.105 57.0921 375.105 41.7674C375.105 30.3489 368.094 24.8401 356.074 24.1389L344.556 23.4378C339.147 23.1373 336.743 21.4346 336.843 17.8288C336.943 14.2229 341.25 12.0194 348.362 12.0194C356.275 12.0194 363.186 12.9208 371.099 14.7237V2.10339C365.089 0.701129 357.577 0 349.464 0C334.74 0 323.021 6.0097 323.021 19.9322ZM316.31 0.801288H261.622V13.3215H281.754V60.9984H296.278V13.4216H316.21V0.801288H316.31ZM213.845 12.3199H230.071C235.48 12.3199 239.486 14.4233 239.486 20.2326C239.486 25.6414 235.48 27.8449 229.57 27.8449H213.745V12.3199H213.845ZM240.288 61.0985H257.916L239.987 38.462C249.202 36.559 254.611 29.147 254.611 19.4313C254.611 8.91438 248.2 0.801288 234.178 0.801288H199.221V60.9984H213.745V39.3635H224.061L240.288 61.0985ZM156.252 49.8804C146.236 49.8804 138.423 43.4701 138.423 31.1502C138.423 18.4297 146.236 12.1195 156.252 12.1195C166.268 12.0194 174.081 18.3296 174.081 31.1502C174.081 43.5703 166.268 49.9806 156.252 49.8804ZM156.252 0C137.822 0 122.998 10.4168 122.998 31.1502C122.998 51.5832 137.922 62 156.252 62C174.682 62 189.506 51.5832 189.506 31.1502C189.606 10.4168 174.682 0 156.252 0ZM90.2456 28.9467H75.3215V12.3199H91.4475C96.8562 12.3199 100.562 14.6236 100.562 20.433C100.562 26.3425 97.0565 28.9467 90.2456 28.9467ZM95.1535 0.801288H60.7981V60.9984H75.3215V40.9661H92.5493C107.774 40.9661 115.687 32.4523 115.687 20.1325C115.687 8.11308 108.375 0.801288 95.1535 0.801288ZM0 19.9322C0 30.5493 7.31179 35.7577 19.231 36.3586L28.7464 36.8594C34.2552 37.1599 38.1615 38.7625 38.1615 42.5687C38.1615 47.1761 34.0549 49.3796 24.8401 49.3796C16.727 49.3796 9.01454 48.378 1.90307 46.8756V59.7965C8.21325 61.0986 17.7286 61.8998 24.3393 61.8998C39.1632 61.8998 52.084 57.0921 52.084 41.7674C52.084 30.3489 45.0727 24.8401 33.0533 24.1389L21.5347 23.4378C16.126 23.1373 13.7221 21.4346 13.8223 17.8288C13.9225 14.2229 18.2294 12.0194 25.3409 12.0194C33.2536 12.0194 40.1648 12.9208 48.0775 14.7237V2.10339C42.0678 0.701129 34.5557 0 26.4427 0C11.7189 0 0 6.0097 0 19.9322Z"
    fill="white"
  />
</svg>
